<?xml version="1.0" encoding="utf-8"?>

<!DOCTYPE svg PUBLIC "-//W3C//DTD SVG 1.1//EN" "http://www.w3.org/Graphics/SVG/1.1/DTD/svg11.dtd">
<!-- Uploaded to: SVG Repo, www.svgrepo.com, Generator: SVG Repo Mixer Tools -->
<svg height="800px" width="800px" version="1.1" id="_x32_" xmlns="http://www.w3.org/2000/svg" xmlns:xlink="http://www.w3.org/1999/xlink" 
	 viewBox="0 0 512 512"  xml:space="preserve">
<style type="text/css">
	.st0{fill:#000000;}
</style>
<g>
	<path class="st0" d="M342.237,248.055H169.762L29.532,442.283c0,0,88.157,73.639,226.472,69.553
		c138.307,4.086,226.464-69.553,226.464-69.553L342.237,248.055z"/>
	<path class="st0" d="M140.675,136.878l29.088,88.957h172.475l29.088-88.957l45.351,34.926l48.517-58.72
		C428.522,42.688,358.798,0,358.798,0c-23.836,31.598-61.018,51.92-102.794,51.92c-41.785,0-78.966-20.322-102.802-51.92
		c0,0-69.724,42.688-106.394,113.084l48.508,58.72L140.675,136.878z"/>
</g>
</svg>