<?xml version="1.0" encoding="UTF-8"?>
<svg id="jeans" xmlns="http://www.w3.org/2000/svg" viewBox="0 0 386.66 512">
  <path d="m354.96,0H31.7L0,505.68l157.78,6.32,35.55-282.25h.02l35.53,282.25,157.78-6.32L354.96,0Zm-140.64,205.96h-41.97l-35.45,281.4-111.63-4.47L54.04,23.79h278.57l28.78,459.09-111.63,4.47-35.43-281.4ZM106.81,38.54h-40.31l-1.28,33.51h41.59v-33.51Zm-40.63,62.6v53.73c.03,3.56,1.41,6.33,2.99,8.73,2.84,4.17,6.85,7.71,11.38,11.19,13.53,10.29,32.1,19.31,32.28,19.43l3,1.46,2.99-1.46c.12-.07,10.97-5.38,22.07-12.39,5.56-3.53,11.17-7.44,15.7-11.59,2.26-2.09,4.27-4.23,5.89-6.64,1.59-2.4,2.95-5.17,3-8.73v-60.53h-99.31v6.8h0Zm13.59,6.8h72.13v12.32h-72.13v-12.32Zm0,20.82h72.13v25.96l-.25.56c-.71,1.5-3.6,4.66-7.49,7.69-5.82,4.65-13.76,9.5-20.15,13.09-3.19,1.81-6.01,3.3-8.02,4.35-.07.03-.1.05-.17.08-4.55-2.36-13.59-7.23-21.64-12.65-4.4-2.95-8.48-6.1-11.17-8.8-1.33-1.34-2.31-2.56-2.8-3.4l-.45-.86v-.04c0-2.75,0-14.17,0-25.98Zm42.01-90.22h64.06v33.51h-64.06v-33.51Zm79.03,0h64.06v33.51h-64.06v-33.51Zm20.35,62.6v53.73c.05,3.56,1.41,6.33,3,8.73,2.84,4.17,6.85,7.71,11.38,11.19,13.53,10.29,32.1,19.31,32.3,19.43l2.99,1.46,2.99-1.46c.13-.07,10.99-5.38,22.07-12.39,5.56-3.53,11.17-7.44,15.7-11.59,2.26-2.09,4.28-4.23,5.89-6.64,1.59-2.4,2.95-5.17,3-8.73v-60.53h-99.33v6.8h0Zm13.59,6.8h72.14v12.32h-72.14v-12.32Zm0,20.82h72.14v25.95l-.25.57c-.7,1.5-3.58,4.66-7.48,7.69-5.83,4.65-13.76,9.5-20.15,13.09-3.19,1.81-6.01,3.3-8.02,4.35-.07.03-.1.05-.17.08-4.55-2.36-13.59-7.23-21.64-12.65-4.4-2.95-8.48-6.1-11.17-8.8-1.34-1.34-2.32-2.56-2.82-3.4l-.43-.86-.02-.04c0-2.75,0-14.17,0-25.98Zm45.09-90.22v33.51h41.59l-1.28-33.51h-40.31Z"/>
</svg>