<?xml version="1.0" encoding="UTF-8"?>
<svg id="ring" xmlns="http://www.w3.org/2000/svg" viewBox="0 0 196.45 176.34">
  <defs>
    <style>
      .cls-1 {
        fill: #848483;
      }
    </style>
  </defs>
  <path class="cls-1" d="m193.39,56.15C187.75,26.69,148.21,0,98.22,0S8.69,26.69,3.05,56.15c-4.19,17.38-3.62,40.73-.96,54.18,7.05,40.4,43.58,66.01,96.13,66.01s89.08-25.61,96.13-66.01c2.67-13.45,3.24-36.8-.96-54.18Zm-111.15,74.18c-22.3-.65-42.11-9.02-53.75-17.33-3.9-2.81-6.88-5.54-8.94-8.47-1.14-1.71-2.15-3.48-2.46-6.22-.25-2.69,1.16-5.13,3.16-5.46,1.91-.32,3.63,1.43,3.99,3.95h.02s0,0,0,0l.04.09c.07.17.26.53.58.97.62.9,1.7,2.12,3.16,3.43,2.92,2.63,7.31,5.64,12.7,8.44,10.8,5.6,25.66,10.39,41.65,10.83,2.01.06,3.6,2.29,3.57,4.98-.04,2.7-1.7,4.85-3.72,4.79Zm15.98-21.6c-35.06,0-70.36-12.92-73.88-30.57.9-15.27,38.82-30.56,73.88-30.56s72.99,15.28,73.89,30.56c-3.52,17.64-38.82,30.57-73.89,30.57Z"/>
</svg>