<?xml version="1.0" encoding="UTF-8"?>
<svg id="shoes" xmlns="http://www.w3.org/2000/svg" viewBox="0 0 218.55 114.18">
  <defs>
    <style>
      .cls-1 {
        fill: #999626;
      }
    </style>
  </defs>
  <path class="cls-1" d="m218.55,75.26c0-3.81-.66-7.93-2.41-11.84-1.74-3.92-4.61-7.55-8.58-10.23-3.78-2.56-10.78-7.22-19.43-12.74l.66-1.37c.72-1.49.22-3.35-1.11-4.15s-2.99-.25-3.72,1.24l-.61,1.25c-3.95-2.49-8.15-5.11-12.49-7.75-.76-.46-1.54-.93-2.3-1.39l.62-1.23c.74-1.48.27-3.35-1.05-4.17-1.32-.83-2.99-.3-3.73,1.18l-.66,1.33c-4.99-2.96-10.03-5.88-15-8.64l.25-.49c.76-1.46.31-3.34-1-4.19-1.31-.85-2.99-.35-3.75,1.12l-.44.86c-7.43-4-14.54-7.55-20.73-10.11C116.76,1.33,111.95.02,107.64,0c-2.34,0-4.57.43-6.58,1.41-1.5.73-2.83,1.76-3.92,2.93-1.63,1.76-2.72,3.75-3.57,5.69-.85,1.94-1.48,3.87-2.11,5.77-1.42,4.32-2.83,7.22-4.41,9.4-1.33,1.83-2.79,3.26-4.56,4.47-2.65,1.81-6.08,3.14-10.65,4-4.56.86-10.21,1.22-17.02,1.24h-.1c-3.88,0-6.88-.63-9.32-1.57-3.64-1.43-6.12-3.55-8.34-6.1-2.21-2.56-4-5.55-6.09-8.5-1.43-2.01-3.24-3.54-5.16-4.5-1.92-.97-3.94-1.41-5.9-1.41-2.4,0-4.73.65-6.83,1.9-2.09,1.25-3.98,3.17-5.2,5.77C2.01,33.03,0,46.08,0,57.61c0,7.67.88,14.69,2.15,20.62,1.02,4.71,2.25,8.65,3.59,11.83.46,10.74,1.82,18.92,1.84,19.1l.83,5.01h62.71l5.86-5.02,18.06,5.02h117.72l.87-4.96c.99-5.68,1.47-10.86,1.47-15.65,0-1.1-.08-2.13-.12-3.18.85-1.65,1.62-3.42,2.2-5.45.82-2.91,1.36-6.19,1.37-9.68Zm-14.97,26.65h-107.2l-21.87-6.09-7.11,6.09H17.7c-.29-2.5-.62-5.74-.84-9.46l187.21-.52c.02.55.06,1.06.06,1.63,0,2.53-.19,5.32-.55,8.35Zm3.15-20.71c-.5,1.78-1.22,3.27-1.7,3.98l.73.61-189.44.53c-1.03-2.02-2.45-5.98-3.51-10.95-1.08-5.03-1.85-11.15-1.85-17.75,0-9.97,1.74-20.99,6.64-31.43.06-.13.25-.41.68-.67.42-.26,1.03-.44,1.63-.44.49,0,.96.11,1.36.31.4.21.76.49,1.12.99,2.23,3.05,5.12,8.29,10.14,12.82,2.51,2.25,5.58,4.3,9.27,5.72,3.69,1.43,7.97,2.24,12.91,2.24h.13c9.51-.04,17.33-.65,24.08-2.69,3.37-1.03,6.47-2.43,9.28-4.35,2.8-1.91,5.29-4.33,7.37-7.21,2.6-3.58,4.51-7.81,6.18-12.89.55-1.66,1.03-3.09,1.49-4.21.34-.84.67-1.48.96-1.94.45-.69.73-.94,1.1-1.16.37-.21.99-.45,2.32-.46,2.14-.02,5.98.81,11.62,3.16,5.51,2.28,12.07,5.53,19.02,9.26l-6.52,12.59c-.3-.05-.6-.1-.92-.1-3.85,0-6.97,3.49-6.97,7.79s3.12,7.79,6.97,7.79,6.97-3.49,6.97-7.79c0-1.71-.5-3.27-1.33-4.55l6.74-13.03c4.99,2.76,10.1,5.7,15.15,8.71l-5.43,10.83c-.28-.04-.56-.1-.85-.1-3.85,0-6.97,3.49-6.97,7.79s3.12,7.79,6.97,7.79,6.97-3.49,6.97-7.79c0-1.73-.52-3.32-1.38-4.61l5.52-11.02c.8.48,1.62.97,2.42,1.46,4.35,2.65,8.56,5.27,12.52,7.77l-4.03,8.34c-.26-.03-.51-.09-.78-.09-3.85,0-6.97,3.49-6.97,7.79s3.12,7.79,6.97,7.79,6.97-3.49,6.97-7.79c0-1.76-.54-3.37-1.42-4.67l4.03-8.35c8.47,5.41,15.31,9.96,18.95,12.43,2.29,1.57,3.59,3.31,4.46,5.23.86,1.91,1.25,4.09,1.25,6.36,0,2.06-.33,4.16-.85,5.95Z"/>
</svg>