<?xml version="1.0" encoding="UTF-8"?>
<svg id="skirt" xmlns="http://www.w3.org/2000/svg" viewBox="0 0 247.62 209.16">
  <defs>
    <style>
      .cls-1 {
        fill: #197c6d;
      }
    </style>
  </defs>
  <path class="cls-1" d="m216.3,182.6l31.32-8.81L201.65,28.22V0H45.96v28.22L0,173.78l31.32,8.81-1.27,7.56,33.94,4.14-.77,7.02,34.83,2.24v5.61h51.51v-5.61l34.83-2.24-.77-7.02,33.94-4.14-1.27-7.56ZM55.21,9.14h137.2v16.51H55.21V9.14Zm151.51,173.14l-26.6,3.25-7.84-52.72-6.54.95,7.81,52.56h-.1s.72,6.5.72,6.5l-27.67,1.79-5.31-56.56-6.58.6,5.71,60.75v.63h-33.02v-.63l5.71-60.75-6.58-.6-5.31,56.56-27.67-1.79.71-6.48h-.09s7.8-52.57,7.8-52.57l-6.54-.95-7.83,52.72-26.6-3.25,11.77-57.2-6.47-1.31-10.41,50.59-24.15-6.78L54.4,32.18h138.81l42.75,135.4-24.15,6.78-10.41-50.59-6.47,1.31,11.77,57.2Z"/>
</svg>