<?xml version="1.0" encoding="UTF-8"?>
<svg id="socks" xmlns="http://www.w3.org/2000/svg" viewBox="0 0 161.12 190.12">
  <defs>
    <style>
      .cls-1 {
        fill: #7e9331;
      }
    </style>
  </defs>
  <path class="cls-1" d="m155.21,109.37h0c-3.84-6.13-9.56-11.37-16.72-14.85l-23.14-11.32V0H31.74v20.92H0v107.26c0,14.78,8.73,28.33,22.6,35.12l45.76,22.39c6.12,2.99,12.71,4.42,19.18,4.42,7.57,0,14.98-1.95,21.45-5.59,6.45-3.63,11.97-8.98,15.67-15.73,5.67-.69,11.14-2.42,16.06-5.18h.01c6.48-3.66,12.01-9.04,15.72-15.79v-.02c3.15-5.78,4.67-12.02,4.67-18.15,0-7.14-2.05-14.16-5.91-20.29Zm-36.24,41.22c0,4.59-1.13,9.27-3.51,13.62h0c-2.78,5.1-6.93,9.12-11.79,11.86-4.86,2.74-10.44,4.2-16.13,4.21-4.85,0-9.79-1.07-14.4-3.32l-45.75-22.39c-10.42-5.1-16.97-15.29-16.98-26.39V30.76h62.8v79.35l28.78,14.08c5.39,2.64,9.65,6.56,12.53,11.15l4.47-2.51-4.47,2.52c2.9,4.6,4.44,9.87,4.45,15.26Zm28.24-7.3c-2.8,5.1-6.94,9.12-11.81,11.86h.01c-2.15,1.2-4.43,2.14-6.8,2.83.5-2.46.76-4.94.76-7.4,0-7.16-2.05-14.17-5.91-20.29-3.85-6.12-9.54-11.36-16.7-14.86l-23.15-11.33V20.92h-41.47v-11.08h62.8v79.36l28.5,13.94.28.14c5.38,2.62,9.65,6.54,12.52,11.12h.01c2.9,4.62,4.44,9.9,4.44,15.26,0,4.6-1.14,9.28-3.5,13.63Z"/>
</svg>