<?xml version="1.0" encoding="UTF-8"?>
<svg id="sunglasses" xmlns="http://www.w3.org/2000/svg" viewBox="0 0 201.65 74.36">
  <path d="m183.59,0h-74.33s-.03,1.59.07,4.28c-3.98-1.04-5.05-1.61-9.57-1.62-3.74,0-4.04.43-7.43,1.14.09-2.39.06-3.8.06-3.8H18.06C8.09,0,0,8.7,0,19.43v19.41c0,22.86,38.23,47.99,65.84,28.57,17.42-12.26,23.42-35.86,25.48-51.64,3.46-1.05,4.18-1.7,8.44-1.7,5.08,0,6.55.88,10.41,2.32l.17-.53c2.07,15.77,8.09,39.31,25.47,51.54,27.61,19.42,65.84-5.71,65.84-28.57v-19.41c0-10.73-8.09-19.43-18.06-19.43ZM12.74,41.13C9.91,3.05,40.36,11.42,40.36,11.42l-27.61,29.71Zm116.69,0c-2.83-38.09,27.62-29.71,27.62-29.71l-27.62,29.71Z"/>
</svg>