<?xml version="1.0" encoding="utf-8"?>

<!DOCTYPE svg PUBLIC "-//W3C//DTD SVG 1.1//EN" "http://www.w3.org/Graphics/SVG/1.1/DTD/svg11.dtd">
<!-- Uploaded to: SVG Repo, www.svgrepo.com, Generator: SVG Repo Mixer Tools -->
<svg height="800px" width="800px" version="1.1" id="_x32_" xmlns="http://www.w3.org/2000/svg" xmlns:xlink="http://www.w3.org/1999/xlink" 
	 viewBox="0 0 512 512"  xml:space="preserve">
<style type="text/css">
	.st0{fill:#000000;}
</style>
<g>
	<path class="st0" d="M511.04,381.295l-8.218-29.24c-1.882-6.705-6.46-12.458-12.545-15.789c-0.62-0.339-1.312-0.483-1.954-0.772
		c4.225-6.164,5.904-14.029,3.749-21.693l-7.396-26.321c-1.882-6.705-6.453-12.465-12.566-15.803
		c-0.606-0.332-1.29-0.476-1.918-0.757c4.211-6.164,5.89-14.015,3.735-21.678l-7.642-27.208
		c-1.874-6.691-6.445-12.444-12.558-15.804c-0.692-0.375-1.456-0.54-2.177-0.85c0.497-0.735,1.052-1.428,1.471-2.206
		c3.266-6.107,3.943-13.403,1.86-19.999l-1.197-3.843c-10.583-33.718-35.023-56.139-74.241-68.388l-1.723-0.606
		c-12.559-3.901-25.493-6.38-38.592-7.606V81.314c0-20.236-16.437-36.695-36.63-36.695H262.82h-13.64h-39.677
		c-20.196,0-36.63,16.459-36.63,36.695v21.419c-13.139,1.24-26.17,3.749-39.06,7.765l-0.796,0.295
		c-39.68,12.4-64.113,34.821-74.706,68.561l-1.179,3.778c-2.094,6.626-1.42,13.928,1.824,19.991c0.421,0.8,0.994,1.507,1.499,2.257
		c-0.724,0.318-1.503,0.483-2.199,0.865c-6.095,3.345-10.666,9.098-12.54,15.782l-7.638,27.208
		c-2.159,7.664-0.483,15.522,3.731,21.686c-0.63,0.281-1.316,0.425-1.924,0.757c-6.103,3.338-10.681,9.098-12.559,15.796
		l-7.394,26.321c-2.158,7.671-0.479,15.53,3.746,21.7c-0.635,0.289-1.323,0.433-1.933,0.764
		c-6.102,3.338-10.684,9.091-12.562,15.788l-8.222,29.248c-3.802,13.532,4.052,27.857,17.508,31.938l41.861,12.688
		c2.448,0.743,4.986,1.118,7.541,1.118h0.004c4.329,0,8.633-1.096,12.429-3.158c6.084-3.301,10.673-9.018,12.588-15.688
		l8.388-29.183c2.202-7.67,0.569-15.536-3.619-21.722c0.659-0.288,1.37-0.439,2.004-0.786c6.085-3.302,10.67-9.019,12.584-15.673
		l7.545-26.278c2.198-7.678,0.573-15.536-3.608-21.722c0.656-0.288,1.363-0.432,1.993-0.779c1.28-0.692,2.448-1.55,3.583-2.444
		c1.463,4.953,4.322,9.25,8.168,12.501c-5.662,4.78-9.34,11.831-9.34,19.804v36.429c0,7.966,3.677,15.024,9.34,19.804
		c-5.662,4.78-9.34,11.838-9.34,19.811v43.386c0,14.361,11.683,26.04,26.044,26.04h102.55h13.64h102.549
		c14.361,0,26.04-11.679,26.04-26.04v-43.386c0-7.973-3.677-15.031-9.336-19.811c5.659-4.78,9.336-11.838,9.336-19.804v-36.429
		c0-7.973-3.677-15.024-9.336-19.804c3.842-3.251,6.705-7.548,8.169-12.501c1.139,0.894,2.307,1.752,3.582,2.444
		c0.628,0.346,1.342,0.49,1.997,0.779c-4.182,6.193-5.811,14.051-3.612,21.722l7.548,26.285c1.911,6.647,6.496,12.364,12.58,15.666
		c0.635,0.346,1.348,0.498,2.004,0.786c-4.189,6.186-5.818,14.052-3.612,21.722l8.377,29.19c1.918,6.662,6.503,12.379,12.588,15.674
		c3.799,2.068,8.104,3.165,12.429,3.165c2.566,0,5.104-0.375,7.555-1.118l41.851-12.688
		C506.989,409.151,514.847,394.827,511.04,381.295z M260.992,56.428h41.504c13.719,0,24.822,11.16,24.822,24.886v21.131h-66.325
		V56.428z M89.922,375.751l-8.384,29.183c-1.053,3.662-3.522,6.748-6.871,8.565c-3.341,1.817-7.274,2.22-10.918,1.118
		l-41.854-12.689c-7.401-2.242-11.654-10-9.564-17.44l8.223-29.248c1.031-3.677,3.5-6.784,6.852-8.615
		c3.352-1.838,7.304-2.249,10.955-1.139l42.023,12.739C87.82,360.474,92.066,368.282,89.922,375.751z M108.435,311.292
		l-7.545,26.278c-1.049,3.648-3.529,6.741-6.87,8.558c-3.342,1.817-7.274,2.228-10.922,1.125l-42.236-12.811
		c-7.411-2.242-11.658-10.007-9.563-17.447l7.396-26.328c1.031-3.676,3.504-6.791,6.853-8.622c3.352-1.832,7.299-2.249,10.958-1.132
		l42.387,12.84C106.33,296.001,110.58,303.816,108.435,311.292z M127.201,245.961l-7.8,27.143c-1.049,3.67-3.526,6.756-6.867,8.572
		c-3.341,1.816-7.278,2.227-10.919,1.117l-42.607-12.919c-7.407-2.235-11.657-10-9.563-17.44l7.641-27.215
		c1.032-3.677,3.504-6.784,6.853-8.623c3.352-1.831,7.302-2.249,10.958-1.132l42.766,12.955
		C125.1,230.671,129.346,238.485,127.201,245.961z M251.007,455.572H146.63c-7.836,0-14.231-6.387-14.231-14.231v-43.386
		c0-7.902,6.394-14.231,14.231-14.231h104.377V455.572z M251.007,372.565H146.63c-7.836,0-14.231-6.388-14.231-14.224v-36.429
		c0-7.894,6.394-14.224,14.231-14.224h104.377V372.565z M251.007,296.528H146.63c-7.836,0-14.231-6.395-14.231-14.232v-37.488
		c0-7.829,6.394-14.224,14.231-14.224h104.377V296.528z M251.007,219.423H126.941l-49.084-14.858
		c-3.634-1.132-6.705-3.64-8.464-6.964c-1.813-3.388-2.13-7.339-1.002-10.908l1.193-3.82c9.841-31.346,33.037-50.206,66.954-60.804
		l1.25-0.447c17.115-5.32,34.984-8.016,52.974-8.016h60.244V219.423z M251.007,102.445h-66.322V81.314
		c0-13.726,11.096-24.886,24.818-24.886h41.504V102.445z M379.6,441.341c0,7.844-6.395,14.231-14.232,14.231H260.992v-71.848
		h104.376c7.836,0,14.232,6.33,14.232,14.231V441.341z M379.6,358.34c0,7.836-6.395,14.224-14.232,14.224H260.992v-64.877h104.376
		c7.836,0,14.232,6.33,14.232,14.224V358.34z M379.6,282.296c0,7.837-6.395,14.232-14.232,14.232H260.992v-65.944h104.376
		c7.836,0,14.232,6.394,14.232,14.224V282.296z M260.992,219.423V113.605h60.241c17.994,0,35.859,2.696,52.974,8.016l1.254,0.447
		c33.913,10.598,57.112,29.458,66.953,60.804l1.19,3.82c1.124,3.569,0.814,7.52-0.995,10.908c-1.759,3.324-4.83,5.832-8.464,6.964
		l-49.088,14.858H260.992z M399.469,281.677c-3.346-1.817-5.825-4.903-6.87-8.572l-7.8-27.143
		c-2.142-7.476,2.097-15.291,9.538-17.54l42.765-12.955c3.655-1.118,7.606-0.699,10.958,1.132c3.345,1.838,5.826,4.946,6.849,8.623
		l7.642,27.215c2.098,7.44-2.148,15.205-9.559,17.44l-42.607,12.919C406.743,283.904,402.806,283.493,399.469,281.677z
		 M417.982,346.127c-3.345-1.817-5.825-4.909-6.878-8.558l-7.54-26.278c-2.149-7.476,2.105-15.291,9.537-17.54l42.391-12.84
		c3.655-1.117,7.606-0.699,10.958,1.132c3.352,1.831,5.818,4.946,6.856,8.622l7.397,26.328c2.091,7.44-2.156,15.204-9.567,17.447
		l-42.24,12.811C425.25,348.355,421.32,347.944,417.982,346.127z M490.104,401.928l-41.857,12.689
		c-3.641,1.103-7.57,0.699-10.915-1.118c-3.346-1.817-5.818-4.903-6.871-8.565l-8.384-29.183
		c-2.149-7.469,2.104-15.276,9.538-17.526l42.022-12.739c3.648-1.11,7.599-0.699,10.958,1.139c3.345,1.832,5.818,4.938,6.849,8.615
		l8.218,29.248C501.754,391.928,497.502,399.686,490.104,401.928z"/>
</g>
</svg>