<?xml version="1.0" encoding="UTF-8"?>
<svg id="winter_jacket" xmlns="http://www.w3.org/2000/svg" viewBox="0 0 294.37 251.2">
  <defs>
    <style>
      .cls-1 {
        fill: #1f7cb5;
      }
    </style>
  </defs>
  <path class="cls-1" d="m293.82,200.05l-4.72-17.37c-1.08-3.98-3.71-7.4-7.21-9.38-.36-.2-.75-.29-1.12-.46,2.43-3.66,3.39-8.34,2.16-12.89l-4.25-15.64c-1.08-3.98-3.71-7.41-7.22-9.39-.35-.2-.74-.28-1.1-.45,2.42-3.66,3.39-8.33,2.15-12.88l-4.39-16.17c-1.08-3.98-3.71-7.39-7.22-9.39-.4-.22-.84-.32-1.25-.51.29-.44.6-.85.85-1.31,1.88-3.63,2.27-7.96,1.07-11.88l-.69-2.28c-6.08-20.04-20.14-33.36-42.68-40.64l-.99-.36c-7.22-2.32-14.66-3.79-22.19-4.52v-12.73c0-12.02-9.45-21.8-21.06-21.8h-53.47c-11.61,0-21.06,9.78-21.06,21.8v12.73c-7.55.74-15.05,2.23-22.46,4.61l-.46.18c-22.81,7.37-36.86,20.69-42.95,40.74l-.68,2.24c-1.2,3.94-.82,8.28,1.05,11.88.24.48.57.9.86,1.34-.42.19-.86.29-1.26.51-3.5,1.99-6.13,5.41-7.21,9.38l-4.39,16.17c-1.24,4.55-.28,9.22,2.15,12.89-.36.17-.76.25-1.11.45-3.51,1.98-6.14,5.41-7.22,9.39l-4.25,15.64c-1.24,4.56-.28,9.23,2.15,12.89-.37.17-.76.26-1.11.45-3.51,1.98-6.14,5.4-7.22,9.38l-4.73,17.38c-2.19,8.04,2.33,16.55,10.07,18.98l24.07,7.54c1.41.44,2.87.66,4.34.66h0c2.49,0,4.96-.65,7.15-1.88,3.5-1.96,6.14-5.36,7.24-9.32l4.82-17.34c1.27-4.56.33-9.23-2.08-12.91.38-.17.79-.26,1.15-.47,3.5-1.96,6.13-5.36,7.24-9.31l4.34-15.61c1.26-4.56.33-9.23-2.07-12.91.38-.17.78-.26,1.15-.46.74-.41,1.41-.92,2.06-1.45.84,2.94,2.48,5.5,4.7,7.43-3.26,2.84-5.37,7.03-5.37,11.77v21.65c0,4.73,2.11,8.93,5.37,11.77-3.26,2.84-5.37,7.03-5.37,11.77v25.78c0,8.53,6.72,15.47,14.97,15.47h125.76c8.26,0,14.97-6.94,14.97-15.47v-25.78c0-4.74-2.11-8.93-5.37-11.77,3.25-2.84,5.37-7.03,5.37-11.77v-21.65c0-4.74-2.11-8.93-5.37-11.77,2.21-1.93,3.85-4.49,4.7-7.43.65.53,1.33,1.04,2.06,1.45.36.21.77.29,1.15.46-2.4,3.68-3.34,8.35-2.08,12.91l4.34,15.62c1.1,3.95,3.73,7.35,7.23,9.31.37.21.78.3,1.15.47-2.41,3.68-3.35,8.35-2.08,12.91l4.82,17.34c1.1,3.96,3.74,7.36,7.24,9.31,2.18,1.23,4.66,1.88,7.15,1.88,1.48,0,2.93-.22,4.34-.66l24.06-7.54c7.74-2.43,12.25-10.94,10.07-18.98ZM150.05,7.02h23.86c7.89,0,14.27,6.63,14.27,14.79v12.56h-38.13V7.02h0ZM51.7,196.76l-4.82,17.34c-.61,2.18-2.02,4.01-3.95,5.09-1.92,1.08-4.18,1.32-6.28.66l-24.06-7.54c-4.26-1.33-6.7-5.94-5.5-10.36l4.73-17.38c.59-2.18,2.01-4.03,3.94-5.12,1.93-1.09,4.2-1.34,6.3-.68l24.16,7.57c4.28,1.34,6.72,5.98,5.48,10.41Zm10.64-38.3l-4.34,15.61c-.6,2.17-2.03,4.01-3.95,5.09-1.92,1.08-4.18,1.32-6.28.67l-24.28-7.61c-4.26-1.33-6.7-5.95-5.5-10.37l4.25-15.64c.59-2.18,2.01-4.04,3.94-5.12,1.93-1.09,4.2-1.34,6.3-.67l24.37,7.63c4.28,1.34,6.72,5.98,5.49,10.42Zm10.79-38.82l-4.48,16.13c-.6,2.18-2.03,4.01-3.95,5.09-1.92,1.08-4.18,1.32-6.28.66l-24.5-7.68c-4.26-1.33-6.7-5.94-5.5-10.36l4.39-16.17c.59-2.18,2.01-4.03,3.94-5.12,1.93-1.09,4.2-1.34,6.3-.67l24.59,7.7c4.28,1.34,6.72,5.98,5.48,10.42Zm71.18,124.55h-60.01c-4.51,0-8.18-3.8-8.18-8.46v-25.78c0-4.7,3.68-8.46,8.18-8.46h60.01v42.69Zm0-49.32h-60.01c-4.51,0-8.18-3.8-8.18-8.45v-21.65c0-4.69,3.68-8.45,8.18-8.45h60.01v38.55Zm0-45.18h-60.01c-4.51,0-8.18-3.8-8.18-8.46v-22.28c0-4.65,3.68-8.45,8.18-8.45h60.01v39.18Zm0-45.82h-71.33l-28.22-8.83c-2.09-.67-3.85-2.16-4.87-4.14-1.04-2.01-1.22-4.36-.58-6.48l.69-2.27c5.66-18.63,18.99-29.83,38.49-36.13l.72-.27c9.84-3.16,20.11-4.76,30.46-4.76h34.64v62.88h0Zm0-69.51h-38.13v-12.56c0-8.16,6.38-14.79,14.27-14.79h23.86v27.34h0Zm73.93,201.37c0,4.66-3.68,8.46-8.18,8.46h-60.01v-42.69h60.01c4.51,0,8.18,3.76,8.18,8.46v25.78Zm0-49.32c0,4.66-3.68,8.45-8.18,8.45h-60.01v-38.55h60.01c4.51,0,8.18,3.76,8.18,8.45v21.65Zm0-45.19c0,4.66-3.68,8.46-8.18,8.46h-60.01v-39.18h60.01c4.51,0,8.18,3.8,8.18,8.45v22.28Zm-68.19-37.36v-62.88h34.64c10.35,0,20.62,1.6,30.46,4.76l.72.27c19.5,6.3,32.84,17.5,38.49,36.13l.68,2.27c.65,2.12.47,4.47-.57,6.48-1.01,1.98-2.78,3.47-4.87,4.14l-28.22,8.83h-71.33Zm79.62,36.99c-1.92-1.08-3.35-2.91-3.95-5.09l-4.48-16.13c-1.23-4.44,1.21-9.09,5.48-10.42l24.59-7.7c2.1-.66,4.37-.42,6.3.67,1.92,1.09,3.35,2.94,3.94,5.12l4.39,16.17c1.21,4.42-1.23,9.03-5.5,10.36l-24.5,7.68c-2.09.66-4.36.41-6.28-.66Zm10.64,38.3c-1.92-1.08-3.35-2.92-3.95-5.09l-4.34-15.61c-1.24-4.44,1.21-9.09,5.48-10.42l24.37-7.63c2.1-.66,4.37-.42,6.3.67,1.93,1.09,3.35,2.94,3.94,5.12l4.25,15.64c1.2,4.42-1.24,9.03-5.5,10.37l-24.29,7.61c-2.1.66-4.36.41-6.27-.67Zm41.47,33.16l-24.07,7.54c-2.09.66-4.35.42-6.28-.66-1.92-1.08-3.35-2.91-3.95-5.09l-4.82-17.34c-1.24-4.44,1.21-9.08,5.48-10.41l24.16-7.57c2.1-.66,4.37-.42,6.3.68,1.92,1.09,3.35,2.93,3.94,5.12l4.72,17.38c1.2,4.42-1.24,9.03-5.5,10.36Z"/>
</svg>